<svg width="16" height="17" viewBox="0 0 16 17" fill="none" xmlns="http://www.w3.org/2000/svg">
<path d="M3.66138 8.35675C3.66138 8.175 3.73358 8.00069 3.8621 7.87217C3.99062 7.74365 4.16493 7.67144 4.34668 7.67144H7.53839V4.47974C7.53839 4.29799 7.61059 4.12368 7.73911 3.99516C7.86763 3.86664 8.04194 3.79443 8.22369 3.79443C8.40545 3.79443 8.57976 3.86664 8.70828 3.99516C8.8368 4.12368 8.909 4.29799 8.909 4.47974V7.67144H12.1007C12.2825 7.67144 12.4568 7.74365 12.5853 7.87217C12.7138 8.00069 12.786 8.175 12.786 8.35675C12.786 8.53851 12.7138 8.71282 12.5853 8.84134C12.4568 8.96986 12.2825 9.04206 12.1007 9.04206H8.909V12.2338C8.909 12.4155 8.8368 12.5898 8.70828 12.7183C8.57976 12.8469 8.40545 12.9191 8.22369 12.9191C8.04194 12.9191 7.86763 12.8469 7.73911 12.7183C7.61059 12.5898 7.53839 12.4155 7.53839 12.2338V9.04206H4.34668C4.16493 9.04206 3.99062 8.96986 3.8621 8.84134C3.73358 8.71282 3.66138 8.53851 3.66138 8.35675Z" fill="#FFFAFB"/>
<path fill-rule="evenodd" clip-rule="evenodd" d="M3.94439 0.835592C6.78839 0.520297 9.65852 0.520297 12.5025 0.835592C14.1719 1.022 15.5197 2.33687 15.7152 4.01542C16.0533 6.9001 16.0533 9.81403 15.7152 12.6987C15.5188 14.3773 14.171 15.6912 12.5025 15.8785C9.65852 16.1938 6.78839 16.1938 3.94439 15.8785C2.27499 15.6912 0.927217 14.3773 0.731676 12.6987C0.395105 9.81407 0.395105 6.90006 0.731676 4.01542C0.927217 2.33687 2.2759 1.022 3.94439 0.835592ZM12.3508 2.19707C9.60764 1.893 6.83926 1.893 4.09608 2.19707C3.58826 2.25341 3.11426 2.4793 2.75066 2.83826C2.38706 3.19721 2.1551 3.66827 2.09224 4.17532C1.76725 6.95398 1.76725 9.76106 2.09224 12.5397C2.15529 13.0466 2.38734 13.5175 2.75092 13.8762C3.1145 14.235 3.58839 14.4608 4.09608 14.5171C6.81629 14.8204 9.63062 14.8204 12.3508 14.5171C12.8583 14.4606 13.332 14.2347 13.6954 13.876C14.0588 13.5172 14.2907 13.0465 14.3538 12.5397C14.6787 9.76106 14.6787 6.95398 14.3538 4.17532C14.2906 3.66874 14.0586 3.19821 13.6952 2.83963C13.3318 2.48106 12.8582 2.25534 12.3508 2.1989" fill="#FFFAFB"/>
</svg>
