<?xml version="1.0" encoding="UTF-8"?>
<!DOCTYPE svg PUBLIC "-//W3C//DTD SVG 1.1//EN" "http://www.w3.org/Graphics/SVG/1.1/DTD/svg11.dtd">
<!-- Creator: CorelDRAW 2021 (64-Bit) -->
<svg xmlns="http://www.w3.org/2000/svg" xml:space="preserve" width="148.248mm" height="142.738mm" version="1.1" style="shape-rendering:geometricPrecision; text-rendering:geometricPrecision; image-rendering:optimizeQuality; fill-rule:evenodd; clip-rule:evenodd"
viewBox="0 0 1128.67 1086.72"
 xmlns:xlink="http://www.w3.org/1999/xlink"
 xmlns:xodm="http://www.corel.com/coreldraw/odm/2003">
 <defs>
  <style type="text/css">
   <![CDATA[
    .fil0 {fill:white}
   ]]>
  </style>
 </defs>
 <g id="Layer_x0020_1">
  <metadata id="CorelCorpID_0Corel-Layer"/>
  <g id="_2411239688912">
   <path class="fil0" d="M70.43 889.56c-1,-62.76 0.21,-126.63 0.19,-189.53 -0.03,-76.94 -3.83,-316.13 0.47,-373.93l509.43 0.98c24.7,94.8 34.88,126.86 94.83,176.57 59.21,49.1 124.99,59.38 218.2,45.59l0.72 464.7c-126.95,-1.59 -254.93,-0.15 -381.99,-0.14 -65.83,0 -325.46,8.37 -367.64,-9.39 -31.3,-13.19 -38.44,-19.57 -53.91,-42.41 -14.41,-21.28 -19.81,-42.11 -20.29,-72.44zm892 121.39l0.64 -557.5c-73.24,31.34 -165.57,49.43 -232.96,2.49 -87.37,-60.86 -72.37,-153.25 -90.24,-200.67l-569.43 -0.02c0.58,-47.47 -5.62,-86.71 17.61,-124.42 18.63,-30.23 44.52,-49.51 80.35,-56.49 41.86,-8.16 468.23,-2.85 548.13,-2.77 56.21,0.06 225.08,-7.85 265.47,10.3 82.63,37.14 74.09,99.34 74.05,202.22l0.03 549.64c-0.26,104.21 -3.01,149.47 -93.65,177.22zm152.84 -49.91c18.64,-50.35 11.29,-202.05 11.24,-264.72 -0.07,-91.61 -0.02,-183.21 -0.07,-274.82 -0.04,-63.35 7.52,-222.35 -4.97,-274.64 -16.08,-67.28 -69.53,-121.78 -136.5,-138.93 -50.06,-12.83 -458.7,-6.24 -543.25,-6.24 -45.8,-0 -91.61,0.01 -137.41,0.03 -39.86,0.02 -101.03,-3.57 -138.41,1.22 -75.85,9.73 -132.66,63.81 -153.41,123.4 -18.37,52.74 -10.7,197.16 -10.69,261.74 0.01,85.77 -5.82,498.42 3.52,547.75 13.41,70.83 67.62,123.68 133.68,141.55 49.03,13.26 460.15,6.54 544.12,6.59 80.01,0.05 203.09,7.23 278.09,-1.83 73.4,-8.86 129.9,-55.81 154.07,-121.1z"/>
   <polygon class="fil0" points="182.04,821.89 183.55,956.59 324.45,955.94 325.04,821.65 "/>
   <polygon class="fil0" points="184.41,763.82 323.69,765.23 323.91,617.66 184.59,616.3 "/>
   <polygon class="fil0" points="183.39,559.44 324.51,558.62 324.79,406.67 184.14,407.17 "/>
   <polygon class="fil0" points="404.8,407.17 404.54,558.64 545.36,558.7 545.49,407.35 "/>
   <polygon class="fil0" points="545.37,615.98 405.87,616.17 404.53,765.83 544.28,765.3 "/>
   <polygon class="fil0" points="545.62,822.01 403.64,821.85 404.54,956.03 544.89,955.76 "/>
   <polygon class="fil0" points="623.74,821.99 624.66,955.24 764.6,955.95 765.21,821.87 "/>
   <polygon class="fil0" points="624.65,764.8 763.47,765.35 765.02,615.5 625.63,616.25 "/>
   <path class="fil0" d="M812.08 321.25c25.8,2.52 138.35,-41.33 145.39,-48.98 16.86,-18.31 4.67,-53.36 -34.27,-41.92 -24.42,7.17 -50.55,18.41 -76.34,26.61 0.11,-19.73 1.44,-70.35 -1.4,-87.23 -4.61,-27.38 -39.77,-27.37 -49.65,-6.28 -7.11,15.18 -1.42,67.02 -0.62,86.56 1.49,36.35 -2.07,45.26 16.9,71.22z"/>
  </g>
 </g>
</svg>
