<svg width="32" height="40" viewBox="0 0 32 40" fill="none" xmlns="http://www.w3.org/2000/svg">
<path d="M10.5456 37.6431H2.36377V2.35742H26.9092V17.286M6.45468 10.5003H22.8183M6.45468 15.9288H17.3638M21.4547 24.0717V29.5003L25.5456 33.5717M29.6365 29.5003C29.6365 31.6599 28.7745 33.7311 27.2401 35.2581C25.7057 36.7852 23.6246 37.6431 21.4547 37.6431C19.2847 37.6431 17.2036 36.7852 15.6693 35.2581C14.1349 33.7311 13.2729 31.6599 13.2729 29.5003C13.2729 27.3407 14.1349 25.2695 15.6693 23.7424C17.2036 22.2153 19.2847 21.3574 21.4547 21.3574C23.6246 21.3574 25.7057 22.2153 27.2401 23.7424C28.7745 25.2695 29.6365 27.3407 29.6365 29.5003Z" stroke="#FFFAFB" stroke-width="3" stroke-linejoin="round"/>
</svg>
